<svg width="16" height="16" viewBox="0 0 16 16" fill="none" xmlns="http://www.w3.org/2000/svg">
<path d="M13.873 6.41504C13.9825 6.41504 14.0714 6.50384 14.0714 6.61339V13.4962C14.0714 13.6058 13.9825 13.6946 13.873 13.6946H8.21748C8.10373 13.9282 7.8457 14.0912 7.54561 14.0912C7.24551 14.0912 6.98748 13.9282 6.87373 13.6946H1.19835C1.0888 13.6946 1 13.6058 1 13.4962V6.61339C1 6.50384 1.0888 6.41504 1.19835 6.41504H13.873Z" fill="#2D26A8"/>
<path d="M13.9763 5.94092C14.0866 5.94092 14.1762 6.0362 14.1762 6.15372V13.5376C14.1762 13.6552 14.0866 13.7504 13.9763 13.7504H8.27535C8.16069 14.0011 7.90059 14.1761 7.59809 14.1761C7.29559 14.1761 7.03549 14.0011 6.92083 13.7504H1.19994C1.08951 13.7504 1 13.6552 1 13.5376V6.15372C1 6.0362 1.08951 5.94092 1.19994 5.94092H13.9763Z" fill="#53489C"/>
<path d="M6.59356 12.9605H1.59509V12.5142H6.59356C6.94067 12.5142 7.5258 12.5955 7.5258 13.3572C7.5258 12.9367 6.98033 12.9605 6.59356 12.9605Z" fill="#8A85E7"/>
<path d="M8.45788 12.9605H13.4564V12.5142H8.45788C8.11077 12.5142 7.52563 12.5955 7.52563 13.3572C7.52563 12.9367 8.07109 12.9605 8.45788 12.9605Z" fill="#8A85E7"/>
<path d="M1.82349 5.42334V12.9607H6.82195C7.20873 12.9607 7.7542 12.9369 7.7542 13.3574V5.50268C7.7542 5.45887 7.71868 5.42334 7.67486 5.42334H1.82349Z" fill="#8D85C7"/>
<path d="M13.6849 5.42334V12.9607H8.6864C8.29961 12.9607 7.75415 12.9369 7.75415 13.3574V5.50268C7.75415 5.45886 7.78967 5.42334 7.83349 5.42334H13.6849Z" fill="#8D85C7"/>
<path opacity="0.6" d="M2.5177 6.79168C2.5177 6.71499 2.57986 6.65283 2.65654 6.65283H6.94094C7.01762 6.65283 7.07978 6.71499 7.07978 6.79168V6.8115C7.07978 6.88819 7.01762 6.95036 6.94094 6.95036H2.65654C2.57986 6.95036 2.5177 6.88819 2.5177 6.8115V6.79168Z" fill="white"/>
<path opacity="0.6" d="M2.5177 10.2829C2.5177 10.2062 2.57986 10.144 2.65654 10.144H6.94094C7.01762 10.144 7.07978 10.2062 7.07978 10.2829V10.3027C7.07978 10.3794 7.01762 10.4416 6.94094 10.4416H2.65654C2.57986 10.4416 2.5177 10.3794 2.5177 10.3027V10.2829Z" fill="white"/>
<path opacity="0.6" d="M3.64819 9.58855C3.64819 9.51187 3.71035 9.44971 3.78704 9.44971H5.83007C5.90674 9.44971 5.96891 9.51187 5.96891 9.58855V9.60839C5.96891 9.68506 5.90674 9.74723 5.83007 9.74723H3.78704C3.71035 9.74723 3.64819 9.68506 3.64819 9.60839V9.58855Z" fill="white"/>
<path opacity="0.6" d="M2.5177 7.48601C2.5177 7.40933 2.57986 7.34717 2.65654 7.34717H6.94094C7.01762 7.34717 7.07978 7.40933 7.07978 7.48601V7.50585C7.07978 7.58254 7.01762 7.6447 6.94094 7.6447H2.65654C2.57986 7.6447 2.5177 7.58254 2.5177 7.50585V7.48601Z" fill="white"/>
<path opacity="0.6" d="M2.5177 10.9767C2.5177 10.9001 2.57986 10.8379 2.65654 10.8379H6.94094C7.01762 10.8379 7.07978 10.9001 7.07978 10.9767V10.9966C7.07978 11.0733 7.01762 11.1354 6.94094 11.1354H2.65654C2.57986 11.1354 2.5177 11.0733 2.5177 10.9966V10.9767Z" fill="white"/>
<path opacity="0.6" d="M2.5177 8.18035C2.5177 8.10368 2.57986 8.0415 2.65654 8.0415H6.94094C7.01762 8.0415 7.07978 8.10368 7.07978 8.18035V8.20019C7.07978 8.27687 7.01762 8.33903 6.94094 8.33903H2.65654C2.57986 8.33903 2.5177 8.27687 2.5177 8.20019V8.18035Z" fill="white"/>
<path opacity="0.6" d="M2.5177 11.6716C2.5177 11.5949 2.57986 11.5327 2.65654 11.5327H6.94094C7.01762 11.5327 7.07978 11.5949 7.07978 11.6716V11.6914C7.07978 11.7681 7.01762 11.8302 6.94094 11.8302H2.65654C2.57986 11.8302 2.5177 11.7681 2.5177 11.6914V11.6716Z" fill="white"/>
<path opacity="0.6" d="M8.44836 6.79168C8.44836 6.71499 8.51054 6.65283 8.58721 6.65283H12.8716C12.9483 6.65283 13.0104 6.71499 13.0104 6.79168V6.8115C13.0104 6.88819 12.9483 6.95036 12.8716 6.95036H8.58721C8.51054 6.95036 8.44836 6.88819 8.44836 6.8115V6.79168Z" fill="white"/>
<path opacity="0.6" d="M8.44836 7.48601C8.44836 7.40933 8.51054 7.34717 8.58721 7.34717H12.8716C12.9483 7.34717 13.0104 7.40933 13.0104 7.48601V7.50585C13.0104 7.58254 12.9483 7.6447 12.8716 7.6447H8.58721C8.51054 7.6447 8.44836 7.58254 8.44836 7.50585V7.48601Z" fill="white"/>
<path opacity="0.6" d="M8.44836 8.18035C8.44836 8.10368 8.51054 8.0415 8.58721 8.0415H12.8716C12.9483 8.0415 13.0104 8.10368 13.0104 8.18035V8.20019C13.0104 8.27687 12.9483 8.33903 12.8716 8.33903H8.58721C8.51054 8.33903 8.44836 8.27687 8.44836 8.20019V8.18035Z" fill="white"/>
<path opacity="0.6" d="M8.44836 8.87468C8.44836 8.79801 8.51054 8.73584 8.58721 8.73584H12.8716C12.9483 8.73584 13.0104 8.79801 13.0104 8.87468V8.89452C13.0104 8.97121 12.9483 9.03337 12.8716 9.03337H8.58721C8.51054 9.03337 8.44836 8.97121 8.44836 8.89452V8.87468Z" fill="white"/>
<path opacity="0.46" d="M8.44836 10.144H13.0104V11.83H8.44836V10.144Z" fill="white"/>
<path d="M8.22467 5.41943H7.75854V14.9999L7.98665 14.8015L8.22467 14.9999V5.41943Z" fill="#53489C"/>
<path d="M7.28772 1.23802C7.28772 1.10657 7.39429 1 7.52574 1C7.6572 1 7.76377 1.10657 7.76377 1.23802V3.8761C7.76377 4.00755 7.6572 4.11412 7.52574 4.11412C7.39429 4.11412 7.28772 4.00755 7.28772 3.8761V1.23802Z" fill="#FE713A"/>
<path d="M9.63295 1.89879C9.68955 1.78014 9.83161 1.72983 9.95027 1.78643C10.0689 1.84302 10.1192 1.98508 10.0626 2.10373L9.10917 4.10271C9.05257 4.22137 8.91051 4.27167 8.79185 4.21507C8.67321 4.15849 8.6229 4.01641 8.67949 3.89777L9.63295 1.89879Z" fill="#FB9E12"/>
<path d="M5.45071 1.88317C5.39413 1.76452 5.25206 1.71421 5.13341 1.7708C5.01476 1.82739 4.96445 1.96946 5.02105 2.08811L5.98216 4.10312C6.03876 4.22176 6.18082 4.27208 6.29946 4.21548C6.41811 4.15888 6.46842 4.01682 6.41183 3.89818L5.45071 1.88317Z" fill="#FB9E12"/>
</svg>
