<svg width="15" height="15" viewBox="0 0 15 15" fill="none" xmlns="http://www.w3.org/2000/svg">
<path d="M5.99898 3.70612e-08C5.04415 0.000136741 4.10314 0.228157 3.25416 0.665111C2.40518 1.10206 1.67274 1.73533 1.11772 2.51228C0.562707 3.28924 0.201136 4.18743 0.0630629 5.13222C-0.0750106 6.07702 0.0144002 7.04112 0.323865 7.94441C0.633329 8.8477 1.15391 9.66408 1.84234 10.3257C2.53077 10.9873 3.36717 11.4751 4.28203 11.7485C5.19689 12.0219 6.16378 12.073 7.10235 11.8975C8.04092 11.722 8.92406 11.3251 9.67837 10.7397L13.7178 14.7806C13.8586 14.9212 14.0495 15.0001 14.2485 15C14.4475 14.9999 14.6384 14.9207 14.779 14.7798C14.9196 14.639 14.9985 14.4481 14.9984 14.2491C14.9983 14.0501 14.9191 13.8592 14.7782 13.7186L10.7388 9.67923C11.4274 8.79235 11.8533 7.73005 11.968 6.61314C12.0828 5.49623 11.8819 4.36952 11.3881 3.36114C10.8943 2.35276 10.1274 1.50318 9.17476 0.908993C8.22207 0.314811 7.12177 -0.000124737 5.99898 3.70612e-08ZM1.4991 5.99983C1.4991 4.80639 1.97319 3.66183 2.81708 2.81794C3.66097 1.97405 4.80553 1.49996 5.99898 1.49996C7.19242 1.49996 8.33698 1.97405 9.18087 2.81794C10.0248 3.66183 10.4988 4.80639 10.4988 5.99983C10.4988 7.19327 10.0248 8.33783 9.18087 9.18172C8.33698 10.0256 7.19242 10.4997 5.99898 10.4997C4.80553 10.4997 3.66097 10.0256 2.81708 9.18172C1.97319 8.33783 1.4991 7.19327 1.4991 5.99983Z" fill="white"/>
</svg>
