<svg width="17" height="17" viewBox="0 0 17 17" fill="none" xmlns="http://www.w3.org/2000/svg">
<path d="M16.4505 5.7165L11.3543 4.97585L9.07611 0.357288C9.01388 0.230835 8.91152 0.128468 8.78506 0.0662449C8.46793 -0.0903164 8.08254 0.0401514 7.92397 0.357288L5.64581 4.97585L0.549539 5.7165C0.409035 5.73657 0.280575 5.80281 0.182222 5.90317C0.0633192 6.02538 -0.00220171 6.1898 5.64944e-05 6.36029C0.0023147 6.53079 0.0721672 6.69341 0.194265 6.81243L3.88148 10.4073L3.01036 15.4835C2.98993 15.6016 3.003 15.723 3.04808 15.8341C3.09316 15.9451 3.16845 16.0413 3.26541 16.1117C3.36237 16.1821 3.47713 16.224 3.59666 16.2325C3.7162 16.241 3.83573 16.2159 3.9417 16.1599L8.50004 13.7633L13.0584 16.1599C13.1828 16.2262 13.3273 16.2483 13.4658 16.2242C13.8151 16.164 14.0499 15.8328 13.9897 15.4835L13.1186 10.4073L16.8058 6.81243C16.9062 6.71408 16.9724 6.58562 16.9925 6.44511C17.0467 6.09385 16.8018 5.76869 16.4505 5.7165V5.7165Z" fill="#FB9E12"/>
</svg>
