<svg width="17" height="17" viewBox="0 0 17 17" fill="none" xmlns="http://www.w3.org/2000/svg">
<path d="M10.9059 5.19703L11.0222 5.43283L11.2824 5.47065L16.3771 6.21107C16.3772 6.2111 16.3774 6.21112 16.3775 6.21114C16.4601 6.22366 16.5093 6.29756 16.4983 6.36887L16.4983 6.36887L16.4975 6.3744C16.4933 6.40396 16.4793 6.43232 16.456 6.45521C16.4559 6.45525 16.4559 6.45529 16.4559 6.45532L12.7696 10.0493L12.5813 10.2328L12.6258 10.4919L13.4969 15.5681L13.497 15.5685C13.5101 15.6444 13.4592 15.7179 13.3809 15.7314L13.3802 15.7316C13.3489 15.737 13.3175 15.7314 13.2933 15.7186L13.2911 15.7174L8.73272 13.3208L8.50004 13.1985L8.26736 13.3208L3.70902 15.7174L3.70825 15.7178C3.6849 15.7301 3.65856 15.7357 3.63222 15.7338C3.60589 15.7319 3.5806 15.7227 3.55924 15.7072C3.53787 15.6916 3.52129 15.6705 3.51135 15.646C3.50142 15.6215 3.49854 15.5948 3.50304 15.5687L3.50316 15.5681L4.37428 10.4919L4.41874 10.2328L4.23053 10.0493L0.543308 6.45442L0.543276 6.45439C0.516076 6.42788 0.500516 6.39165 0.500013 6.35367C0.499513 6.31599 0.51388 6.27963 0.539978 6.25248C0.562776 6.22949 0.590924 6.21566 0.62025 6.21148L0.62145 6.2113L5.71772 5.47065L5.97791 5.43283L6.09422 5.19703L8.37119 0.580895C8.37132 0.580636 8.37145 0.580377 8.37158 0.580119C8.40809 0.508145 8.49508 0.480699 8.56373 0.514588L8.56431 0.514874C8.59174 0.52837 8.61398 0.550615 8.62748 0.578042L8.62769 0.578475L10.9059 5.19703ZM8.78492 0.0665414L8.78492 0.0665391L8.78492 0.0665414Z" stroke="white"/>
</svg>
